{
    "asset" : {
        "generator" : "Khronos glTF Blender I/O v0.9.36",
        "version" : "2.0"
    },
    "scene" : 0,
    "scenes" : [
        {
            "name" : "Scene",
            "nodes" : [
                0
            ]
        }
    ],
    "nodes" : [
        {
            "mesh" : 0,
            "name" : "Sphere"
        }
    ],
    "meshes" : [
        {
            "name" : "Sphere.001",
            "primitives" : [
                {
                    "attributes" : {
                        "POSITION" : 0
                    },
                    "indices" : 1
                }
            ]
        }
    ],
    "accessors" : [
        {
            "bufferView" : 0,
            "componentType" : 5126,
            "count" : 40,
            "max" : [
                0.8660255074501038,
                0.866025447845459,
                0.9999997615814209
            ],
            "min" : [
                -0.8660255074501038,
                -0.8660255670547485,
                -1
            ],
            "type" : "VEC3"
        },
        {
            "bufferView" : 1,
            "componentType" : 5123,
            "count" : 48,
            "type" : "SCALAR"
        }
    ],
    "bufferViews" : [
        {
            "buffer" : 0,
            "byteLength" : 480,
            "byteOffset" : 0
        },
        {
            "buffer" : 0,
            "byteLength" : 96,
            "byteOffset" : 480
        }
    ],
    "buffers" : [
        {
            "byteLength" : 576,
            "uri" : "data:application/octet-stream;base64,"
        }
    ]
}
