{
    "asset" : {
        "generator" : "Khronos Blender glTF 2.0 I/O",
        "version" : "2.0"
    },
    "scene" : 0,
    "scenes" : [
        {
            "name" : "Scene",
            "nodes" : [
                0
            ]
        }
    ],
    "nodes" : [
        {
            "mesh" : 0,
            "name" : "Ayfra.042"
        }
    ],
    "meshes" : [
        {
            "name" : "Cube.065",
            "primitives" : [
                {
                    "attributes" : {
                        "POSITION" : 0,
                        "TEXCOORD_0" : 1
                    },
                    "indices" : 2
                },
                {
                    "attributes" : {
                        "POSITION" : 3,
                        "TEXCOORD_0" : 4
                    },
                    "indices" : 5
                }
            ]
        }
    ],
    "accessors" : [
        {
            "bufferView" : 0,
            "componentType" : 5126,
            "count" : 1936,
            "max" : [
                774.1156005859375,
                887.4705810546875,
                127.69035339355469
            ],
            "min" : [
                -468.0587463378906,
                -81.97744750976562,
                -0.7446346282958984
            ],
            "type" : "VEC3"
        },
        {
            "bufferView" : 1,
            "componentType" : 5126,
            "count" : 1936,
            "type" : "VEC2"
        },
        {
            "bufferView" : 2,
            "componentType" : 5123,
            "count" : 3297,
            "type" : "SCALAR"
        },
        {
            "bufferView" : 3,
            "componentType" : 5126,
            "count" : 68,
            "max" : [
                233.85438537597656,
                531.2177734375,
                76.49449920654297
            ],
            "min" : [
                49.86552429199219,
                267.3660888671875,
                11.944683074951172
            ],
            "type" : "VEC3"
        },
        {
            "bufferView" : 4,
            "componentType" : 5126,
            "count" : 68,
            "type" : "VEC2"
        },
        {
            "bufferView" : 5,
            "componentType" : 5123,
            "count" : 114,
            "type" : "SCALAR"
        }
    ],
    "bufferViews" : [
        {
            "buffer" : 0,
            "byteLength" : 23232,
            "byteOffset" : 0
        },
        {
            "buffer" : 0,
            "byteLength" : 15488,
            "byteOffset" : 23232
        },
        {
            "buffer" : 0,
            "byteLength" : 6594,
            "byteOffset" : 38720
        },
        {
            "buffer" : 0,
            "byteLength" : 816,
            "byteOffset" : 45316
        },
        {
            "buffer" : 0,
            "byteLength" : 544,
            "byteOffset" : 46132
        },
        {
            "buffer" : 0,
            "byteLength" : 228,
            "byteOffset" : 46676
        }
    ],
    "buffers" : [
        {
            "byteLength" : 46904,
            "uri" : "data:application/octet-stream;base64,"
        }
    ]
}
