{
    "asset" : {
        "generator" : "Khronos glTF Blender I/O v0.9.36",
        "version" : "2.0"
    },
    "scene" : 0,
    "scenes" : [
        {
            "name" : "Scene",
            "nodes" : [
                0
            ]
        }
    ],
    "nodes" : [
        {
            "mesh" : 0,
            "name" : "Module_LOD1"
        }
    ],
    "meshes" : [
        {
            "name" : "Plane.058",
            "primitives" : [
                {
                    "attributes" : {
                        "POSITION" : 0,
                        "TEXCOORD_0" : 1
                    },
                    "indices" : 2
                }
            ]
        }
    ],
    "accessors" : [
        {
            "bufferView" : 0,
            "componentType" : 5126,
            "count" : 68,
            "max" : [
                24.09978675842285,
                0.5088400840759277,
                1.5166237354278564
            ],
            "min" : [
                -0.0012226104736328125,
                -16.506698608398438,
                -0.24619415402412415
            ],
            "type" : "VEC3"
        },
        {
            "bufferView" : 1,
            "componentType" : 5126,
            "count" : 68,
            "type" : "VEC2"
        },
        {
            "bufferView" : 2,
            "componentType" : 5123,
            "count" : 102,
            "type" : "SCALAR"
        }
    ],
    "bufferViews" : [
        {
            "buffer" : 0,
            "byteLength" : 816,
            "byteOffset" : 0
        },
        {
            "buffer" : 0,
            "byteLength" : 544,
            "byteOffset" : 816
        },
        {
            "buffer" : 0,
            "byteLength" : 204,
            "byteOffset" : 1360
        }
    ],
    "buffers" : [
        {
            "byteLength" : 1564,
            "uri" : "data:application/octet-stream;base64,"
        }
    ]
}
