{
    "asset" : {
        "generator" : "Khronos glTF Blender I/O v0.9.36",
        "version" : "2.0"
    },
    "scene" : 0,
    "scenes" : [
        {
            "name" : "Scene",
            "nodes" : [
                0,
                1
            ]
        }
    ],
    "nodes" : [
        {
            "mesh" : 0,
            "name" : "Module_LOD0"
        },
        {
            "mesh" : 1,
            "name" : "Module_LOD1"
        }
    ],
    "meshes" : [
        {
            "name" : "Plane.054",
            "primitives" : [
                {
                    "attributes" : {
                        "POSITION" : 0,
                        "TEXCOORD_0" : 1
                    },
                    "indices" : 2
                }
            ]
        },
        {
            "name" : "Plane.058",
            "primitives" : [
                {
                    "attributes" : {
                        "POSITION" : 3,
                        "TEXCOORD_0" : 4
                    },
                    "indices" : 5
                }
            ]
        }
    ],
    "accessors" : [
        {
            "bufferView" : 0,
            "componentType" : 5126,
            "count" : 1004,
            "max" : [
                24.105627059936523,
                0.6146287322044373,
                1.5179582834243774
            ],
            "min" : [
                -0.0012221161741763353,
                -16.506698608398438,
                -0.24619415402412415
            ],
            "type" : "VEC3"
        },
        {
            "bufferView" : 1,
            "componentType" : 5126,
            "count" : 1004,
            "type" : "VEC2"
        },
        {
            "bufferView" : 2,
            "componentType" : 5123,
            "count" : 2454,
            "type" : "SCALAR"
        },
        {
            "bufferView" : 3,
            "componentType" : 5126,
            "count" : 68,
            "max" : [
                24.09978675842285,
                0.5088400840759277,
                1.5166237354278564
            ],
            "min" : [
                -0.0012226104736328125,
                -16.506698608398438,
                -0.24619415402412415
            ],
            "type" : "VEC3"
        },
        {
            "bufferView" : 4,
            "componentType" : 5126,
            "count" : 68,
            "type" : "VEC2"
        },
        {
            "bufferView" : 5,
            "componentType" : 5123,
            "count" : 102,
            "type" : "SCALAR"
        }
    ],
    "bufferViews" : [
        {
            "buffer" : 0,
            "byteLength" : 12048,
            "byteOffset" : 0
        },
        {
            "buffer" : 0,
            "byteLength" : 8032,
            "byteOffset" : 12048
        },
        {
            "buffer" : 0,
            "byteLength" : 4908,
            "byteOffset" : 20080
        },
        {
            "buffer" : 0,
            "byteLength" : 816,
            "byteOffset" : 24988
        },
        {
            "buffer" : 0,
            "byteLength" : 544,
            "byteOffset" : 25804
        },
        {
            "buffer" : 0,
            "byteLength" : 204,
            "byteOffset" : 26348
        }
    ],
    "buffers" : [
        {
            "byteLength" : 26552,
            "uri" : "data:application/octet-stream;base64,"
        }
    ]
}
