{
    "asset" : {
        "generator" : "Khronos glTF Blender I/O v0.9.10",
        "version" : "2.0"
    },
    "scene" : 0,
    "scenes" : [
        {
            "name" : "Scene",
            "nodes" : [
                0,
                1
            ]
        }
    ],
    "nodes" : [
        {
            "mesh" : 0,
            "name" : "tri_LOD0"
        },
        {
            "mesh" : 1,
            "name" : "tri_LOD1",
            "translation" : [
                1,
                0,
                0
            ]
        }
    ],
    "meshes" : [
        {
            "name" : "Plane.002",
            "primitives" : [
                {
                    "attributes" : {
                        "POSITION" : 0
                    },
                    "indices" : 1
                }
            ]
        },
        {
            "name" : "Plane.003",
            "primitives" : [
                {
                    "attributes" : {
                        "POSITION" : 2
                    },
                    "indices" : 3
                }
            ]
        }
    ],
    "accessors" : [
        {
            "bufferView" : 0,
            "componentType" : 5126,
            "count" : 24,
            "max" : [
                0,
                1.9391067028045654,
                2.0000200271606445
            ],
            "min" : [
                -2,
                -1.0371208190917969e-05,
                0
            ],
            "type" : "VEC3"
        },
        {
            "bufferView" : 1,
            "componentType" : 5123,
            "count" : 36,
            "type" : "SCALAR"
        },
        {
            "bufferView" : 2,
            "componentType" : 5126,
            "count" : 40,
            "max" : [
                0,
                1.016886830329895,
                2
            ],
            "min" : [
                -2,
                -0.7772434949874878,
                0
            ],
            "type" : "VEC3"
        },
        {
            "bufferView" : 3,
            "componentType" : 5123,
            "count" : 60,
            "type" : "SCALAR"
        }
    ],
    "bufferViews" : [
        {
            "buffer" : 0,
            "byteLength" : 288,
            "byteOffset" : 0
        },
        {
            "buffer" : 0,
            "byteLength" : 72,
            "byteOffset" : 288
        },
        {
            "buffer" : 0,
            "byteLength" : 480,
            "byteOffset" : 360
        },
        {
            "buffer" : 0,
            "byteLength" : 120,
            "byteOffset" : 840
        }
    ],
    "buffers" : [
        {
            "byteLength" : 960,
            "uri" : "data:application/octet-stream;base64,"
        }
    ]
}
