{
    "asset" : {
        "generator" : "Khronos glTF Blender I/O v0.9.10",
        "version" : "2.0"
    },
    "scene" : 0,
    "scenes" : [
        {
            "name" : "Scene",
            "nodes" : [
                0
            ]
        }
    ],
    "nodes" : [
        {
            "mesh" : 0,
            "name" : "Cone"
        }
    ],
    "meshes" : [
        {
            "name" : "Cone",
            "primitives" : [
                {
                    "attributes" : {
                        "POSITION" : 0,
                        "TEXCOORD_0" : 1
                    },
                    "indices" : 2
                }
            ]
        }
    ],
    "accessors" : [
        {
            "bufferView" : 0,
            "componentType" : 5126,
            "count" : 1240,
            "max" : [
                0.8597854971885681,
                0.8597854971885681,
                0.8597854971885681
            ],
            "min" : [
                -0.13603007793426514,
                -0.13603012263774872,
                -0.13603007793426514
            ],
            "type" : "VEC3"
        },
        {
            "bufferView" : 1,
            "componentType" : 5126,
            "count" : 1240,
            "type" : "VEC2"
        },
        {
            "bufferView" : 2,
            "componentType" : 5123,
            "count" : 1854,
            "type" : "SCALAR"
        }
    ],
    "bufferViews" : [
        {
            "buffer" : 0,
            "byteLength" : 14880,
            "byteOffset" : 0
        },
        {
            "buffer" : 0,
            "byteLength" : 9920,
            "byteOffset" : 14880
        },
        {
            "buffer" : 0,
            "byteLength" : 3708,
            "byteOffset" : 24800
        }
    ],
    "buffers" : [
        {
            "byteLength" : 28508,
            "uri" : "data:application/octet-stream;base64,"
        }
    ]
}
