{
    "asset" : {
        "generator" : "Khronos glTF Blender I/O v0.9.10",
        "version" : "2.0"
    },
    "scene" : 0,
    "scenes" : [
        {
            "name" : "Scene",
            "nodes" : [
                0
            ]
        }
    ],
    "nodes" : [
        {
            "mesh" : 0,
            "name" : "PlayerStart"
        }
    ],
    "meshes" : [
        {
            "name" : "Cube.001",
            "primitives" : [
                {
                    "attributes" : {
                        "POSITION" : 0,
                        "TEXCOORD_0" : 1
                    },
                    "indices" : 2
                }
            ]
        }
    ],
    "accessors" : [
        {
            "bufferView" : 0,
            "componentType" : 5126,
            "count" : 4088,
            "max" : [
                0.05149489641189575,
                0.05149489641189575,
                2.7957074642181396
            ],
            "min" : [
                -0.05149489641189575,
                -1.2196224927902222,
                0
            ],
            "type" : "VEC3"
        },
        {
            "bufferView" : 1,
            "componentType" : 5126,
            "count" : 4088,
            "type" : "VEC2"
        },
        {
            "bufferView" : 2,
            "componentType" : 5123,
            "count" : 11232,
            "type" : "SCALAR"
        }
    ],
    "bufferViews" : [
        {
            "buffer" : 0,
            "byteLength" : 49056,
            "byteOffset" : 0
        },
        {
            "buffer" : 0,
            "byteLength" : 32704,
            "byteOffset" : 49056
        },
        {
            "buffer" : 0,
            "byteLength" : 22464,
            "byteOffset" : 81760
        }
    ],
    "buffers" : [
        {
            "byteLength" : 104224,
            "uri" : "data:application/octet-stream;base64,"
        }
    ]
}
