{
    "asset" : {
        "generator" : "Khronos glTF Blender I/O v0.9.10",
        "version" : "2.0"
    },
    "scene" : 0,
    "scenes" : [
        {
            "name" : "Scene",
            "nodes" : [
                0
            ]
        }
    ],
    "nodes" : [
        {
            "mesh" : 0,
            "name" : "Circle"
        }
    ],
    "meshes" : [
        {
            "name" : "Circle",
            "primitives" : [
                {
                    "attributes" : {
                        "POSITION" : 0,
                        "TEXCOORD_0" : 1
                    },
                    "indices" : 2
                }
            ]
        }
    ],
    "accessors" : [
        {
            "bufferView" : 0,
            "componentType" : 5126,
            "count" : 1532,
            "max" : [
                0.8539670705795288,
                0.8539670705795288,
                0.8539670705795288
            ],
            "min" : [
                -0.8539670705795288,
                -0.8539670705795288,
                -0.8539670705795288
            ],
            "type" : "VEC3"
        },
        {
            "bufferView" : 1,
            "componentType" : 5126,
            "count" : 1532,
            "type" : "VEC2"
        },
        {
            "bufferView" : 2,
            "componentType" : 5123,
            "count" : 2304,
            "type" : "SCALAR"
        }
    ],
    "bufferViews" : [
        {
            "buffer" : 0,
            "byteLength" : 18384,
            "byteOffset" : 0
        },
        {
            "buffer" : 0,
            "byteLength" : 12256,
            "byteOffset" : 18384
        },
        {
            "buffer" : 0,
            "byteLength" : 4608,
            "byteOffset" : 30640
        }
    ],
    "buffers" : [
        {
            "byteLength" : 35248,
            "uri" : "data:application/octet-stream;base64,"
        }
    ]
}
