{
  "accessors": [
    {
      "bufferView": 0,
      "componentType": 5126,
      "type": "VEC3",
      "count": 272,
      "min": [-0.00122212, -16.5067, -0.246194],
      "max": [96.1056, 0.614629, 1.51796]
    },
    {
      "bufferView": 1,
      "componentType": 5126,
      "type": "VEC2",
      "count": 272
    },
    {
      "bufferView": 2,
      "componentType": 5123,
      "type": "SCALAR",
      "count": 408
    }
  ],
  "asset": {
    "generator": "Khronos glTF Blender I/O v0.9.36",
    "version": "2.0"
  },
  "bufferViews": [
    {
      "buffer": 0,
      "byteLength": 3264
    },
    {
      "buffer": 0,
      "byteLength": 2176,
      "byteOffset": 3264
    },
    {
      "buffer": 0,
      "byteLength": 816,
      "byteOffset": 5440
    }
  ],
  "buffers": [
    {
      "uri": "data:application/octet-stream;base64,",
      "byteLength": 6256
    }
  ],
  "meshes": [
    {
      "name": "Plane",
      "primitives": [
        {
          "indices": 2,
          "attributes": {
            "POSITION": 0,
            "TEXCOORD_0": 1
          }
        }
      ]
    }
  ],
  "nodes": [
    {
      "mesh": 0,
      "name": "ExportedMesh"
    }
  ],
  "scene": 0,
  "scenes": [
    {
      "name": "Scene",
      "nodes": [ 0 ]
    }
  ]
}
