{
  "accessors": [
    {
      "bufferView": 0,
      "componentType": 5126,
      "type": "VEC3",
      "count": 10592,
      "min": [-1, -1, -1],
      "max": [1, 1, 1.87611]
    },
    {
      "bufferView": 1,
      "componentType": 5126,
      "type": "VEC2",
      "count": 10592
    },
    {
      "bufferView": 2,
      "componentType": 5123,
      "type": "SCALAR",
      "count": 23421
    }
  ],
  "asset": {
    "generator": "Khronos glTF Blender I/O v0.9.36",
    "version": "2.0"
  },
  "bufferViews": [
    {
      "buffer": 0,
      "byteLength": 127104
    },
    {
      "buffer": 0,
      "byteLength": 84736,
      "byteOffset": 127104
    },
    {
      "buffer": 0,
      "byteLength": 46842,
      "byteOffset": 211840
    }
  ],
  "buffers": [
    {
      "uri": "data:application/octet-stream;base64,",
      "byteLength": 258682
    }
  ],
  "meshes": [
    {
      "name": "Plane",
      "primitives": [
        {
          "indices": 2,
          "attributes": {
            "POSITION": 0,
            "TEXCOORD_0": 1
          }
        }
      ]
    }
  ],
  "nodes": [
    {
      "mesh": 0,
      "name": "ExportedMesh"
    }
  ],
  "scene": 0,
  "scenes": [
    {
      "name": "Scene",
      "nodes": [ 0 ]
    }
  ]
}
