{
  "accessors": [
    {
      "bufferView": 0,
      "componentType": 5126,
      "type": "VEC3",
      "count": 136,
      "min": [-1, -1, 0],
      "max": [1, 1, 0]
    },
    {
      "bufferView": 1,
      "componentType": 5126,
      "type": "VEC2",
      "count": 136
    },
    {
      "bufferView": 2,
      "componentType": 5123,
      "type": "SCALAR",
      "count": 204
    }
  ],
  "asset": {
    "generator": "Khronos glTF Blender I/O v0.9.36",
    "version": "2.0"
  },
  "bufferViews": [
    {
      "buffer": 0,
      "byteLength": 1632
    },
    {
      "buffer": 0,
      "byteLength": 1088,
      "byteOffset": 1632
    },
    {
      "buffer": 0,
      "byteLength": 408,
      "byteOffset": 2720
    }
  ],
  "buffers": [
    {
      "uri": "data:application/octet-stream;base64,",
      "byteLength": 3128
    }
  ],
  "meshes": [
    {
      "name": "Plane",
      "primitives": [
        {
          "indices": 2,
          "attributes": {
            "POSITION": 0,
            "TEXCOORD_0": 1
          }
        }
      ]
    }
  ],
  "nodes": [
    {
      "mesh": 0,
      "name": "ExportedMesh"
    }
  ],
  "scene": 0,
  "scenes": [
    {
      "name": "Scene",
      "nodes": [ 0 ]
    }
  ]
}
