{
    "asset" : {
        "generator" : "Khronos Blender glTF 2.0 I/O",
        "version" : "2.0"
    },
    "scene" : 0,
    "scenes" : [
        {
            "name" : "Scene",
            "nodes" : [
                5
            ]
        }
    ],
    "nodes" : [
        {
            "name" : "lower_arm",
            "rotation" : [
                -0.04848620295524597,
                -0.07426255941390991,
                -0.2673182785511017,
                0.9595182538032532
            ],
            "translation" : [
                -1.1175870895385742e-08,
                0.2972851097583771,
                -7.450580596923828e-08
            ]
        },
        {
            "children" : [
                0
            ],
            "name" : "upper_arm",
            "rotation" : [
                -0.5796429514884949,
                -0.3208085894584656,
                -0.7182597517967224,
                0.21260038018226624
            ],
            "scale" : [
                0.999999463558197,
                0.9999997019767761,
                0.9999998807907104
            ],
            "translation" : [
                0.20150946080684662,
                0.6577039957046509,
                0.002799004316329956
            ]
        },
        {
            "children" : [
                1
            ],
            "name" : "Bone",
            "translation" : [
                0,
                0.7904682159423828,
                0
            ]
        },
        {
            "children" : [
                2
            ],
            "name" : "root",
            "rotation" : [
                0.7071068286895752,
                0,
                0,
                0.7071068286895752
            ]
        },
        {
            "mesh" : 0,
            "name" : "fireman",
            "skin" : 0
        },
        {
            "children" : [
                4,
                3
            ],
            "name" : "FiremanArmature"
        }
    ],
    "animations" : [
        {
            "channels" : [
                {
                    "sampler" : 0,
                    "target" : {
                        "node" : 1,
                        "path" : "rotation"
                    }
                }
            ],
            "name" : "rotate arm",
            "samplers" : [
                {
                    "input" : 6,
                    "interpolation" : "CUBICSPLINE",
                    "output" : 7
                }
            ]
        }
    ],
    "meshes" : [
        {
            "name" : "base.obj.009",
            "primitives" : [
                {
                    "attributes" : {
                        "POSITION" : 0,
                        "TEXCOORD_0" : 1,
                        "JOINTS_0" : 2,
                        "WEIGHTS_0" : 3
                    },
                    "indices" : 4
                }
            ]
        }
    ],
    "skins" : [
        {
            "inverseBindMatrices" : 5,
            "joints" : [
                3,
                2,
                1,
                0
            ],
            "name" : "FiremanArmature"
        }
    ],
    "accessors" : [
        {
            "bufferView" : 0,
            "componentType" : 5126,
            "count" : 2528,
            "max" : [
                0.5975669622421265,
                0.15032242238521576,
                1.8761135339736938
            ],
            "min" : [
                -0.5975669622421265,
                -0.40538445115089417,
                -0.02412562444806099
            ],
            "type" : "VEC3"
        },
        {
            "bufferView" : 1,
            "componentType" : 5126,
            "count" : 2528,
            "type" : "VEC2"
        },
        {
            "bufferView" : 2,
            "componentType" : 5123,
            "count" : 2528,
            "type" : "VEC4"
        },
        {
            "bufferView" : 3,
            "componentType" : 5126,
            "count" : 2528,
            "type" : "VEC4"
        },
        {
            "bufferView" : 4,
            "componentType" : 5123,
            "count" : 11517,
            "type" : "SCALAR"
        },
        {
            "bufferView" : 5,
            "componentType" : 5126,
            "count" : 4,
            "type" : "MAT4"
        },
        {
            "bufferView" : 6,
            "componentType" : 5126,
            "count" : 2,
            "max" : [
                2.0833333333333335
            ],
            "min" : [
                0.041666666666666664
            ],
            "type" : "SCALAR"
        },
        {
            "bufferView" : 7,
            "componentType" : 5126,
            "count" : 6,
            "type" : "VEC4"
        }
    ],
    "bufferViews" : [
        {
            "buffer" : 0,
            "byteLength" : 30336,
            "byteOffset" : 0
        },
        {
            "buffer" : 0,
            "byteLength" : 20224,
            "byteOffset" : 30336
        },
        {
            "buffer" : 0,
            "byteLength" : 20224,
            "byteOffset" : 50560
        },
        {
            "buffer" : 0,
            "byteLength" : 40448,
            "byteOffset" : 70784
        },
        {
            "buffer" : 0,
            "byteLength" : 23034,
            "byteOffset" : 111232
        },
        {
            "buffer" : 0,
            "byteLength" : 256,
            "byteOffset" : 134268
        },
        {
            "buffer" : 0,
            "byteLength" : 8,
            "byteOffset" : 134524
        },
        {
            "buffer" : 0,
            "byteLength" : 96,
            "byteOffset" : 134532
        }
    ],
    "buffers" : [
        {
            "byteLength" : 134628,
            "uri" : "data:application/octet-stream;base64,"
        }
    ]
}
