{
    "asset" : {
        "generator" : "Khronos glTF Blender I/O v0.9.10",
        "version" : "2.0"
    },
    "scene" : 0,
    "scenes" : [
        {
            "name" : "Scene",
            "nodes" : [
                0
            ]
        }
    ],
    "nodes" : [
        {
            "mesh" : 0,
            "name" : "lince.002"
        }
    ],
    "meshes" : [
        {
            "name" : "Sphere.016",
            "primitives" : [
                {
                    "attributes" : {
                        "POSITION" : 0,
                        "TEXCOORD_0" : 1,
                        "TEXCOORD_1" : 2,
                        "TEXCOORD_2" : 3
                    },
                    "indices" : 4
                }
            ]
        }
    ],
    "accessors" : [
        {
            "bufferView" : 0,
            "componentType" : 5126,
            "count" : 3766,
            "max" : [
                0.5990237593650818,
                0.1364012509584427,
                1.8706762790679932
            ],
            "min" : [
                -0.5990237593650818,
                -0.40139877796173096,
                -0.005096994340419769
            ],
            "type" : "VEC3"
        },
        {
            "bufferView" : 1,
            "componentType" : 5126,
            "count" : 3766,
            "type" : "VEC2"
        },
        {
            "bufferView" : 2,
            "componentType" : 5126,
            "count" : 3766,
            "type" : "VEC2"
        },
        {
            "bufferView" : 3,
            "componentType" : 5126,
            "count" : 3766,
            "type" : "VEC2"
        },
        {
            "bufferView" : 4,
            "componentType" : 5123,
            "count" : 16413,
            "type" : "SCALAR"
        }
    ],
    "bufferViews" : [
        {
            "buffer" : 0,
            "byteLength" : 45192,
            "byteOffset" : 0
        },
        {
            "buffer" : 0,
            "byteLength" : 30128,
            "byteOffset" : 45192
        },
        {
            "buffer" : 0,
            "byteLength" : 30128,
            "byteOffset" : 75320
        },
        {
            "buffer" : 0,
            "byteLength" : 30128,
            "byteOffset" : 105448
        },
        {
            "buffer" : 0,
            "byteLength" : 32826,
            "byteOffset" : 135576
        }
    ],
    "buffers" : [
        {
            "byteLength" : 168404,
            "uri" : "data:application/octet-stream;base64,"
        }
    ]
}
