{
    "asset" : {
        "generator" : "Khronos glTF Blender I/O v0.9.10",
        "version" : "2.0"
    },
    "scene" : 0,
    "scenes" : [
        {
            "name" : "Scene",
            "nodes" : [
                0
            ]
        }
    ],
    "nodes" : [
        {
            "mesh" : 0,
            "name" : "policia",
            "rotation" : [
                0.7071065902709961,
                0,
                0,
                0.7071069478988647
            ]
        }
    ],
    "meshes" : [
        {
            "name" : "cloth",
            "primitives" : [
                {
                    "attributes" : {
                        "POSITION" : 0,
                        "TEXCOORD_0" : 1
                    },
                    "indices" : 2
                }
            ]
        }
    ],
    "accessors" : [
        {
            "bufferView" : 0,
            "componentType" : 5126,
            "count" : 3097,
            "max" : [
                0.15999631583690643,
                0.49214720726013184,
                0.09176308661699295
            ],
            "min" : [
                -0.15999631583690643,
                -0.0013614037306979299,
                -0.05792434513568878
            ],
            "type" : "VEC3"
        },
        {
            "bufferView" : 1,
            "componentType" : 5126,
            "count" : 3097,
            "type" : "VEC2"
        },
        {
            "bufferView" : 2,
            "componentType" : 5123,
            "count" : 14304,
            "type" : "SCALAR"
        }
    ],
    "bufferViews" : [
        {
            "buffer" : 0,
            "byteLength" : 37164,
            "byteOffset" : 0
        },
        {
            "buffer" : 0,
            "byteLength" : 24776,
            "byteOffset" : 37164
        },
        {
            "buffer" : 0,
            "byteLength" : 28608,
            "byteOffset" : 61940
        }
    ],
    "buffers" : [
        {
            "byteLength" : 90548,
            "uri" : "data:application/octet-stream;base64,"
        }
    ]
}
